# This file uses centimeters as units for non-parametric coordinates.

mtllib AndroidRobot.mtl
g default
v 2.544964 7.312061 -0.009688
v 2.530507 7.318760 -0.044688
v 2.357797 7.003240 -0.034700
v 2.372400 6.996399 0.000740
v 2.369332 6.995802 -0.071134
v 2.541952 7.311498 -0.080676
v 2.400247 6.978442 -0.087224
v 2.572585 7.294544 -0.096559
v 2.432431 6.961327 -0.073541
v 2.604462 7.277834 -0.083049
v 2.447030 6.954489 -0.038102
v 2.618911 7.271147 -0.048064
v 2.435498 6.961924 -0.001667
v 2.607473 7.278394 -0.012091
v 2.404584 6.979283 0.014423
v 2.576847 7.295340 0.003811
v 2.557960 7.334148 -0.011295
v 2.543894 7.340742 -0.045443
v 2.570933 7.346539 -0.017611
v 2.559157 7.352056 -0.046186
v 2.596888 7.332740 -0.006575
v 2.588972 7.317660 0.001885
v 2.621813 7.318741 -0.019548
v 2.618757 7.300935 -0.013616
v 2.631114 7.312744 -0.048931
v 2.629871 7.293771 -0.048721
v 2.619343 7.318261 -0.077507
v 2.615802 7.300365 -0.082865
v 2.593388 7.332057 -0.088542
v 2.584793 7.316849 -0.096049
v 2.568459 7.346058 -0.075569
v 2.555005 7.333577 -0.080548
v 2.584808 7.352172 -0.028076
v 2.577020 7.355821 -0.046979
v 2.601976 7.343047 -0.020780
v 2.618464 7.333787 -0.029360
v 2.624618 7.329818 -0.048796
v 2.616830 7.333468 -0.067699
v 2.599663 7.342596 -0.074998
v 2.583171 7.351856 -0.066414
v 2.604360 7.349322 -0.048094
vt 0.117483 0.089161
vt 0.083804 0.090297
vt 0.074976 0.459641
vt 0.109091 0.458559
vt 0.144628 0.460774
vt 0.152557 0.091319
vt 0.277244 0.461292
vt 0.283430 0.091622
vt 0.395141 0.460893
vt 0.399729 0.091025
vt 0.429256 0.459811
vt 0.433370 0.089884
vt 0.359605 0.458679
vt 0.364676 0.088870
vt 0.226988 0.458160
vt 0.233843 0.088572
vt 0.121373 0.064421
vt 0.088530 0.065463
vt 0.144120 0.047941
vt 0.116632 0.048813
vt 0.239117 0.047620
vt 0.234878 0.064037
vt 0.345973 0.048038
vt 0.362554 0.064536
vt 0.402095 0.048950
vt 0.429610 0.065626
vt 0.374607 0.049822
vt 0.396766 0.066669
vt 0.279610 0.050143
vt 0.283262 0.067052
vt 0.172754 0.049726
vt 0.155586 0.066553
vt 0.183335 0.036793
vt 0.165153 0.037370
vt 0.246173 0.036580
vt 0.316856 0.036857
vt 0.353979 0.037460
vt 0.335797 0.038037
vt 0.272959 0.038250
vt 0.202277 0.037973
vt 0.259692 0.030266
vn -0.578023 0.366215 0.729229
vn -0.865002 0.500701 0.032700
vn -0.862118 0.477410 0.169803
vn -0.862118 0.477410 0.169803
vn -0.494607 0.297504 0.816612
vn -0.578023 0.366215 0.729229
vn -0.724007 0.378603 -0.576605
vn -0.862118 0.477410 0.169803
vn -0.865002 0.500701 0.032700
vn -0.865002 0.500701 0.032700
vn -0.638324 0.354413 -0.683326
vn -0.724007 0.378603 -0.576605
vn -0.161194 0.058898 -0.985164
vn -0.724007 0.378603 -0.576605
vn -0.638324 0.354413 -0.683326
vn -0.638324 0.354413 -0.683326
vn -0.030701 0.013301 -0.999440
vn -0.161194 0.058898 -0.985164
vn 0.496510 -0.294306 -0.816616
vn -0.161194 0.058898 -0.985164
vn -0.030701 0.013301 -0.999440
vn -0.030701 0.013301 -0.999440
vn 0.601719 -0.322910 -0.730523
vn 0.496510 -0.294306 -0.816616
vn 0.863891 -0.474195 -0.169798
vn 0.496510 -0.294306 -0.816616
vn 0.601719 -0.322910 -0.730523
vn 0.601719 -0.322910 -0.730523
vn 0.888667 -0.457283 -0.034099
vn 0.863891 -0.474195 -0.169798
vn 0.725846 -0.375324 0.576437
vn 0.863891 -0.474195 -0.169798
vn 0.888667 -0.457283 -0.034099
vn 0.888667 -0.457283 -0.034099
vn 0.662020 -0.311209 0.681820
vn 0.725846 -0.375324 0.576437
vn 0.163203 -0.055701 0.985019
vn 0.725846 -0.375324 0.576437
vn 0.662020 -0.311209 0.681820
vn 0.662020 -0.311209 0.681820
vn 0.054498 0.029999 0.998063
vn 0.163203 -0.055701 0.985019
vn 0.054498 0.029999 0.998063
vn -0.578023 0.366215 0.729229
vn -0.494607 0.297504 0.816612
vn -0.494607 0.297504 0.816612
vn 0.163203 -0.055701 0.985019
vn 0.054498 0.029999 0.998063
vn -0.865002 0.500701 0.032700
vn -0.578023 0.366215 0.729229
vn -0.461804 0.546905 0.698306
vn -0.461804 0.546905 0.698306
vn -0.737044 0.675540 0.020301
vn -0.865002 0.500701 0.032700
vn -0.737044 0.675540 0.020301
vn -0.461804 0.546905 0.698306
vn -0.189402 0.811909 0.552206
vn -0.189402 0.811909 0.552206
vn -0.407493 0.913184 -0.006600
vn -0.737044 0.675540 0.020301
vn 0.309702 0.546904 0.777805
vn -0.189402 0.811909 0.552206
vn -0.461804 0.546905 0.698306
vn -0.461804 0.546905 0.698306
vn 0.151194 0.221091 0.963462
vn 0.309702 0.546904 0.777805
vn 0.151194 0.221091 0.963462
vn -0.461804 0.546905 0.698306
vn -0.578023 0.366215 0.729229
vn -0.578023 0.366215 0.729229
vn 0.054498 0.029999 0.998063
vn 0.151194 0.221091 0.963462
vn 0.797428 0.273410 0.537919
vn 0.309702 0.546904 0.777805
vn 0.151194 0.221091 0.963462
vn 0.151194 0.221091 0.963462
vn 0.742783 -0.110897 0.660285
vn 0.797428 0.273410 0.537919
vn 0.742783 -0.110897 0.660285
vn 0.151194 0.221091 0.963462
vn 0.054498 0.029999 0.998063
vn 0.054498 0.029999 0.998063
vn 0.662020 -0.311209 0.681820
vn 0.742783 -0.110897 0.660285
vn 0.988061 0.151694 -0.026899
vn 0.797428 0.273410 0.537919
vn 0.742783 -0.110897 0.660285
vn 0.742783 -0.110897 0.660285
vn 0.966434 -0.254709 -0.033601
vn 0.988061 0.151694 -0.026899
vn 0.966434 -0.254709 -0.033601
vn 0.742783 -0.110897 0.660285
vn 0.662020 -0.311209 0.681820
vn 0.662020 -0.311209 0.681820
vn 0.888667 -0.457283 -0.034099
vn 0.966434 -0.254709 -0.033601
vn 0.769973 0.252991 -0.585779
vn 0.988061 0.151694 -0.026899
vn 0.966434 -0.254709 -0.033601
vn 0.966434 -0.254709 -0.033601
vn 0.691197 -0.125999 -0.711597
vn 0.769973 0.252991 -0.585779
vn 0.270810 0.517920 -0.811431
vn 0.769973 0.252991 -0.585779
vn 0.691197 -0.125999 -0.711597
vn 0.691197 -0.125999 -0.711597
vn 0.078202 0.199706 -0.976730
vn 0.270810 0.517920 -0.811431
vn -0.216808 0.791428 -0.571520
vn 0.270810 0.517920 -0.811431
vn 0.078202 0.199706 -0.976730
vn 0.078202 0.199706 -0.976730
vn -0.513394 0.531694 -0.673593
vn -0.216808 0.791428 -0.571520
vn -0.513394 0.531694 -0.673593
vn -0.737044 0.675540 0.020301
vn -0.407493 0.913184 -0.006600
vn -0.407493 0.913184 -0.006600
vn -0.216808 0.791428 -0.571520
vn -0.513394 0.531694 -0.673593
vn -0.407493 0.913184 -0.006600
vn -0.189402 0.811909 0.552206
vn 0.079998 0.948473 0.306591
vn 0.079998 0.948473 0.306591
vn -0.031501 0.997622 -0.061301
vn -0.407493 0.913184 -0.006600
vn -0.216808 0.791428 -0.571520
vn -0.407493 0.913184 -0.006600
vn -0.031501 0.997622 -0.061301
vn -0.189402 0.811909 0.552206
vn 0.309702 0.546904 0.777805
vn 0.386193 0.787085 0.480991
vn 0.386193 0.787085 0.480991
vn 0.079998 0.948473 0.306591
vn -0.189402 0.811909 0.552206
vn 0.309702 0.546904 0.777805
vn 0.797428 0.273410 0.537919
vn 0.707883 0.607885 0.359691
vn 0.707883 0.607885 0.359691
vn 0.386193 0.787085 0.480991
vn 0.309702 0.546904 0.777805
vn 0.797428 0.273410 0.537919
vn 0.988061 0.151694 -0.026899
vn 0.856530 0.515918 0.013600
vn 0.856530 0.515918 0.013600
vn 0.707883 0.607885 0.359691
vn 0.797428 0.273410 0.537919
vn 0.988061 0.151694 -0.026899
vn 0.769973 0.252991 -0.585779
vn 0.745101 0.565000 -0.354400
vn 0.745101 0.565000 -0.354400
vn 0.856530 0.515918 0.013600
vn 0.988061 0.151694 -0.026899
vn 0.769973 0.252991 -0.585779
vn 0.270810 0.517920 -0.811431
vn 0.438701 0.726502 -0.528901
vn 0.438701 0.726502 -0.528901
vn 0.745101 0.565000 -0.354400
vn 0.769973 0.252991 -0.585779
vn 0.270810 0.517920 -0.811431
vn -0.216808 0.791428 -0.571520
vn 0.117101 0.905709 -0.407404
vn -0.031501 0.997622 -0.061301
vn 0.117101 0.905709 -0.407404
vn -0.216808 0.791428 -0.571520
vn 0.117101 0.905709 -0.407404
vn 0.438701 0.726502 -0.528901
vn 0.270810 0.517920 -0.811431
vn -0.031501 0.997622 -0.061301
vn 0.079998 0.948473 0.306591
vn 0.478402 0.877704 -0.027700
vn 0.079998 0.948473 0.306591
vn 0.386193 0.787085 0.480991
vn 0.478402 0.877704 -0.027700
vn 0.386193 0.787085 0.480991
vn 0.707883 0.607885 0.359691
vn 0.478402 0.877704 -0.027700
vn 0.707883 0.607885 0.359691
vn 0.856530 0.515918 0.013600
vn 0.478402 0.877704 -0.027700
vn 0.856530 0.515918 0.013600
vn 0.745101 0.565000 -0.354400
vn 0.478402 0.877704 -0.027700
vn 0.745101 0.565000 -0.354400
vn 0.438701 0.726502 -0.528901
vn 0.478402 0.877704 -0.027700
vn 0.438701 0.726502 -0.528901
vn 0.117101 0.905709 -0.407404
vn 0.478402 0.877704 -0.027700
vn 0.117101 0.905709 -0.407404
vn -0.031501 0.997622 -0.061301
vn 0.478402 0.877704 -0.027700
vn -0.737044 0.675540 0.020301
vn -0.513394 0.531694 -0.673593
vn -0.638324 0.354413 -0.683326
vn -0.638324 0.354413 -0.683326
vn -0.865002 0.500701 0.032700
vn -0.737044 0.675540 0.020301
vn -0.030701 0.013301 -0.999440
vn -0.638324 0.354413 -0.683326
vn -0.513394 0.531694 -0.673593
vn -0.513394 0.531694 -0.673593
vn 0.078202 0.199706 -0.976730
vn -0.030701 0.013301 -0.999440
vn 0.601719 -0.322910 -0.730523
vn -0.030701 0.013301 -0.999440
vn 0.078202 0.199706 -0.976730
vn 0.078202 0.199706 -0.976730
vn 0.691197 -0.125999 -0.711597
vn 0.601719 -0.322910 -0.730523
vn 0.888667 -0.457283 -0.034099
vn 0.601719 -0.322910 -0.730523
vn 0.691197 -0.125999 -0.711597
vn 0.691197 -0.125999 -0.711597
vn 0.966434 -0.254709 -0.033601
vn 0.888667 -0.457283 -0.034099
s off
g polySurface14 polySurface4 polySurface2 AndroidRobot:Mesh
usemtl AndroidRobot:_android_texture
f 1/1/1 2/2/2 3/3/3
f 3/3/4 4/4/5 1/1/6
f 5/5/7 3/3/8 2/2/9
f 2/2/10 6/6/11 5/5/12
f 7/7/13 5/5/14 6/6/15
f 6/6/16 8/8/17 7/7/18
f 9/9/19 7/7/20 8/8/21
f 8/8/22 10/10/23 9/9/24
f 11/11/25 9/9/26 10/10/27
f 10/10/28 12/12/29 11/11/30
f 13/13/31 11/11/32 12/12/33
f 12/12/34 14/14/35 13/13/36
f 15/15/37 13/13/38 14/14/39
f 14/14/40 16/16/41 15/15/42
f 16/16/43 1/1/44 4/4/45
f 4/4/46 15/15/47 16/16/48
f 2/2/49 1/1/50 17/17/51
f 17/17/52 18/18/53 2/2/54
f 18/18/55 17/17/56 19/19/57
f 19/19/58 20/20/59 18/18/60
f 21/21/61 19/19/62 17/17/63
f 17/17/64 22/22/65 21/21/66
f 22/22/67 17/17/68 1/1/69
f 1/1/70 16/16/71 22/22/72
f 23/23/73 21/21/74 22/22/75
f 22/22/76 24/24/77 23/23/78
f 24/24/79 22/22/80 16/16/81
f 16/16/82 14/14/83 24/24/84
f 25/25/85 23/23/86 24/24/87
f 24/24/88 26/26/89 25/25/90
f 26/26/91 24/24/92 14/14/93
f 14/14/94 12/12/95 26/26/96
f 27/27/97 25/25/98 26/26/99
f 26/26/100 28/28/101 27/27/102
f 29/29/103 27/27/104 28/28/105
f 28/28/106 30/30/107 29/29/108
f 31/31/109 29/29/110 30/30/111
f 30/30/112 32/32/113 31/31/114
f 32/32/115 18/18/116 20/20/117
f 20/20/118 31/31/119 32/32/120
f 20/20/121 19/19/122 33/33/123
f 33/33/124 34/34/125 20/20/126
f 31/31/127 20/20/128 34/34/129
f 19/19/130 21/21/131 35/35/132
f 35/35/133 33/33/134 19/19/135
f 21/21/136 23/23/137 36/36/138
f 36/36/139 35/35/140 21/21/141
f 23/23/142 25/25/143 37/37/144
f 37/37/145 36/36/146 23/23/147
f 25/25/148 27/27/149 38/38/150
f 38/38/151 37/37/152 25/25/153
f 27/27/154 29/29/155 39/39/156
f 39/39/157 38/38/158 27/27/159
f 29/29/160 31/31/161 40/40/162
f 34/34/163 40/40/164 31/31/165
f 40/40/166 39/39/167 29/29/168
f 34/34/169 33/33/170 41/41/171
f 33/33/172 35/35/173 41/41/174
f 35/35/175 36/36/176 41/41/177
f 36/36/178 37/37/179 41/41/180
f 37/37/181 38/38/182 41/41/183
f 38/38/184 39/39/185 41/41/186
f 39/39/187 40/40/188 41/41/189
f 40/40/190 34/34/191 41/41/192
f 18/18/193 32/32/194 6/6/195
f 6/6/196 2/2/197 18/18/198
f 8/8/199 6/6/200 32/32/201
f 32/32/202 30/30/203 8/8/204
f 10/10/205 8/8/206 30/30/207
f 30/30/208 28/28/209 10/10/210
f 12/12/211 10/10/212 28/28/213
f 28/28/214 26/26/215 12/12/216
