# This file uses centimeters as units for non-parametric coordinates.

mtllib AndroidRobot.mtl
g rightantenna:default1
v -0.195419 0.423291 -0.009688
v -0.022855 0.107629 0.000740
v -0.008252 0.114470 -0.034700
v -0.180963 0.429991 -0.044688
v -0.019788 0.107032 -0.071134
v -0.192408 0.422727 -0.080676
v -0.050702 0.089672 -0.087224
v -0.223041 0.405774 -0.096559
v -0.082886 0.072556 -0.073541
v -0.254917 0.389065 -0.083049
v -0.097486 0.065718 -0.038102
v -0.269366 0.382376 -0.048064
v -0.085954 0.073153 -0.001667
v -0.257928 0.389623 -0.012091
v -0.055039 0.090513 0.014423
v -0.227303 0.406570 0.003811
v -0.208415 0.445378 -0.011295
v -0.194349 0.451971 -0.045443
v -0.221389 0.457769 -0.017611
v -0.209613 0.463285 -0.046186
v -0.247343 0.443970 -0.006575
v -0.239428 0.428890 0.001885
v -0.272269 0.429971 -0.019548
v -0.269212 0.412164 -0.013616
v -0.281570 0.423974 -0.048931
v -0.280327 0.405000 -0.048721
v -0.269798 0.429490 -0.077507
v -0.266257 0.411594 -0.082865
v -0.243844 0.443286 -0.088542
v -0.235248 0.428078 -0.096049
v -0.218914 0.457289 -0.075569
v -0.205460 0.444806 -0.080548
v -0.235263 0.463403 -0.028076
v -0.227476 0.467051 -0.046979
v -0.252431 0.454276 -0.020780
v -0.268920 0.445018 -0.029360
v -0.275074 0.441048 -0.048796
v -0.267286 0.444699 -0.067699
v -0.250118 0.453826 -0.074998
v -0.233626 0.463086 -0.066414
v -0.254816 0.460552 -0.048094
vt 0.117483 0.089161
vt 0.109091 0.458559
vt 0.074976 0.459641
vt 0.074976 0.459641
vt 0.083804 0.090297
vt 0.117483 0.089161
vt 0.083804 0.090297
vt 0.074976 0.459641
vt 0.144628 0.460774
vt 0.144628 0.460774
vt 0.152557 0.091319
vt 0.083804 0.090297
vt 0.152557 0.091319
vt 0.144628 0.460774
vt 0.277244 0.461292
vt 0.277244 0.461292
vt 0.283430 0.091622
vt 0.152557 0.091319
vt 0.283430 0.091622
vt 0.277244 0.461292
vt 0.395141 0.460893
vt 0.395141 0.460893
vt 0.399729 0.091025
vt 0.283430 0.091622
vt 0.399729 0.091025
vt 0.395141 0.460893
vt 0.429256 0.459811
vt 0.429256 0.459811
vt 0.433370 0.089884
vt 0.399729 0.091025
vt 0.433370 0.089884
vt 0.429256 0.459811
vt 0.359605 0.458679
vt 0.359605 0.458679
vt 0.364676 0.088870
vt 0.433370 0.089884
vt 0.364676 0.088870
vt 0.359605 0.458679
vt 0.226988 0.458160
vt 0.226988 0.458160
vt 0.233843 0.088572
vt 0.364676 0.088870
vt 0.233843 0.088572
vt 0.226988 0.458160
vt 0.109091 0.458559
vt 0.109091 0.458559
vt 0.117483 0.089161
vt 0.233843 0.088572
vt 0.121373 0.064421
vt 0.117483 0.089161
vt 0.083804 0.090297
vt 0.083804 0.090297
vt 0.088530 0.065463
vt 0.121373 0.064421
vt 0.088530 0.065463
vt 0.083804 0.090297
vt 0.152557 0.091319
vt 0.144120 0.047941
vt 0.121373 0.064421
vt 0.088530 0.065463
vt 0.088530 0.065463
vt 0.116632 0.048813
vt 0.144120 0.047941
vt 0.121373 0.064421
vt 0.144120 0.047941
vt 0.239117 0.047620
vt 0.239117 0.047620
vt 0.234878 0.064037
vt 0.121373 0.064421
vt 0.234878 0.064037
vt 0.233843 0.088572
vt 0.117483 0.089161
vt 0.117483 0.089161
vt 0.121373 0.064421
vt 0.234878 0.064037
vt 0.234878 0.064037
vt 0.239117 0.047620
vt 0.345973 0.048038
vt 0.345973 0.048038
vt 0.362554 0.064536
vt 0.234878 0.064037
vt 0.362554 0.064536
vt 0.364676 0.088870
vt 0.233843 0.088572
vt 0.233843 0.088572
vt 0.234878 0.064037
vt 0.362554 0.064536
vt 0.362554 0.064536
vt 0.345973 0.048038
vt 0.402095 0.048950
vt 0.402095 0.048950
vt 0.429610 0.065626
vt 0.362554 0.064536
vt 0.429610 0.065626
vt 0.433370 0.089884
vt 0.364676 0.088870
vt 0.364676 0.088870
vt 0.362554 0.064536
vt 0.429610 0.065626
vt 0.429610 0.065626
vt 0.402095 0.048950
vt 0.374607 0.049822
vt 0.374607 0.049822
vt 0.396766 0.066669
vt 0.429610 0.065626
vt 0.396766 0.066669
vt 0.374607 0.049822
vt 0.279610 0.050143
vt 0.279610 0.050143
vt 0.283262 0.067052
vt 0.396766 0.066669
vt 0.283262 0.067052
vt 0.279610 0.050143
vt 0.172754 0.049726
vt 0.172754 0.049726
vt 0.155586 0.066553
vt 0.283262 0.067052
vt 0.155586 0.066553
vt 0.172754 0.049726
vt 0.116632 0.048813
vt 0.116632 0.048813
vt 0.088530 0.065463
vt 0.155586 0.066553
vt 0.183335 0.036793
vt 0.144120 0.047941
vt 0.116632 0.048813
vt 0.116632 0.048813
vt 0.165153 0.037370
vt 0.183335 0.036793
vt 0.165153 0.037370
vt 0.116632 0.048813
vt 0.172754 0.049726
vt 0.144120 0.047941
vt 0.183335 0.036793
vt 0.246173 0.036580
vt 0.246173 0.036580
vt 0.239117 0.047620
vt 0.144120 0.047941
vt 0.239117 0.047620
vt 0.246173 0.036580
vt 0.316856 0.036857
vt 0.316856 0.036857
vt 0.345973 0.048038
vt 0.239117 0.047620
vt 0.345973 0.048038
vt 0.316856 0.036857
vt 0.353979 0.037460
vt 0.353979 0.037460
vt 0.402095 0.048950
vt 0.345973 0.048038
vt 0.402095 0.048950
vt 0.353979 0.037460
vt 0.335797 0.038037
vt 0.335797 0.038037
vt 0.374607 0.049822
vt 0.402095 0.048950
vt 0.374607 0.049822
vt 0.335797 0.038037
vt 0.272959 0.038250
vt 0.272959 0.038250
vt 0.279610 0.050143
vt 0.374607 0.049822
vt 0.279610 0.050143
vt 0.272959 0.038250
vt 0.202277 0.037973
vt 0.172754 0.049726
vt 0.202277 0.037973
vt 0.165153 0.037370
vt 0.202277 0.037973
vt 0.172754 0.049726
vt 0.279610 0.050143
vt 0.165153 0.037370
vt 0.259692 0.030266
vt 0.183335 0.036793
vt 0.183335 0.036793
vt 0.259692 0.030266
vt 0.246173 0.036580
vt 0.246173 0.036580
vt 0.259692 0.030266
vt 0.316856 0.036857
vt 0.316856 0.036857
vt 0.259692 0.030266
vt 0.353979 0.037460
vt 0.353979 0.037460
vt 0.259692 0.030266
vt 0.335797 0.038037
vt 0.335797 0.038037
vt 0.259692 0.030266
vt 0.272959 0.038250
vt 0.272959 0.038250
vt 0.259692 0.030266
vt 0.202277 0.037973
vt 0.202277 0.037973
vt 0.259692 0.030266
vt 0.165153 0.037370
vt 0.152557 0.091319
vt 0.155586 0.066553
vt 0.088530 0.065463
vt 0.155586 0.066553
vt 0.152557 0.091319
vt 0.283430 0.091622
vt 0.283430 0.091622
vt 0.283262 0.067052
vt 0.155586 0.066553
vt 0.283262 0.067052
vt 0.283430 0.091622
vt 0.399729 0.091025
vt 0.399729 0.091025
vt 0.396766 0.066669
vt 0.283262 0.067052
vt 0.396766 0.066669
vt 0.399729 0.091025
vt 0.433370 0.089884
vt 0.433370 0.089884
vt 0.429610 0.065626
vt 0.396766 0.066669
vn 0.578023 0.366215 0.729229
vn 0.494697 0.297398 0.816596
vn 0.862185 0.477291 0.169797
vn 0.862185 0.477291 0.169797
vn 0.865002 0.500701 0.032700
vn 0.578023 0.366215 0.729229
vn 0.865002 0.500701 0.032700
vn 0.862185 0.477291 0.169797
vn 0.724082 0.378490 -0.576585
vn 0.724082 0.378490 -0.576585
vn 0.638324 0.354413 -0.683326
vn 0.865002 0.500701 0.032700
vn 0.638324 0.354413 -0.683326
vn 0.724082 0.378490 -0.576585
vn 0.161292 0.058797 -0.985154
vn 0.161292 0.058797 -0.985154
vn 0.030701 0.013301 -0.999440
vn 0.638324 0.354413 -0.683326
vn 0.030701 0.013301 -0.999440
vn 0.161292 0.058797 -0.985154
vn -0.496495 -0.294397 -0.816592
vn -0.496495 -0.294397 -0.816592
vn -0.601719 -0.322910 -0.730523
vn 0.030701 0.013301 -0.999440
vn -0.601719 -0.322910 -0.730523
vn -0.496495 -0.294397 -0.816592
vn -0.863891 -0.474195 -0.169798
vn -0.863891 -0.474195 -0.169798
vn -0.888667 -0.457283 -0.034099
vn -0.601719 -0.322910 -0.730523
vn -0.888667 -0.457283 -0.034099
vn -0.863891 -0.474195 -0.169798
vn -0.725819 -0.375410 0.576415
vn -0.725819 -0.375410 0.576415
vn -0.662020 -0.311209 0.681820
vn -0.888667 -0.457283 -0.034099
vn -0.662020 -0.311209 0.681820
vn -0.725819 -0.375410 0.576415
vn -0.163105 -0.055802 0.985029
vn -0.163105 -0.055802 0.985029
vn -0.054498 0.029999 0.998063
vn -0.662020 -0.311209 0.681820
vn -0.054498 0.029999 0.998063
vn -0.163105 -0.055802 0.985029
vn 0.494697 0.297398 0.816596
vn 0.494697 0.297398 0.816596
vn 0.578023 0.366215 0.729229
vn -0.054498 0.029999 0.998063
vn 0.461804 0.546905 0.698306
vn 0.578023 0.366215 0.729229
vn 0.865002 0.500701 0.032700
vn 0.865002 0.500701 0.032700
vn 0.737089 0.675490 0.020300
vn 0.461804 0.546905 0.698306
vn 0.737089 0.675490 0.020300
vn 0.865002 0.500701 0.032700
vn 0.638324 0.354413 -0.683326
vn 0.189402 0.811909 0.552206
vn 0.461804 0.546905 0.698306
vn 0.737089 0.675490 0.020300
vn 0.737089 0.675490 0.020300
vn 0.407493 0.913184 -0.006600
vn 0.189402 0.811909 0.552206
vn 0.461804 0.546905 0.698306
vn 0.189402 0.811909 0.552206
vn -0.309702 0.546904 0.777805
vn -0.309702 0.546904 0.777805
vn -0.151194 0.221091 0.963462
vn 0.461804 0.546905 0.698306
vn -0.151194 0.221091 0.963462
vn -0.054498 0.029999 0.998063
vn 0.578023 0.366215 0.729229
vn 0.578023 0.366215 0.729229
vn 0.461804 0.546905 0.698306
vn -0.151194 0.221091 0.963462
vn -0.151194 0.221091 0.963462
vn -0.309702 0.546904 0.777805
vn -0.797406 0.273502 0.537904
vn -0.797406 0.273502 0.537904
vn -0.742783 -0.110897 0.660285
vn -0.151194 0.221091 0.963462
vn -0.742783 -0.110897 0.660285
vn -0.662020 -0.311209 0.681820
vn -0.054498 0.029999 0.998063
vn -0.054498 0.029999 0.998063
vn -0.151194 0.221091 0.963462
vn -0.742783 -0.110897 0.660285
vn -0.742783 -0.110897 0.660285
vn -0.797406 0.273502 0.537904
vn -0.988061 0.151694 -0.026899
vn -0.988061 0.151694 -0.026899
vn -0.966434 -0.254709 -0.033601
vn -0.742783 -0.110897 0.660285
vn -0.966434 -0.254709 -0.033601
vn -0.888667 -0.457283 -0.034099
vn -0.662020 -0.311209 0.681820
vn -0.662020 -0.311209 0.681820
vn -0.742783 -0.110897 0.660285
vn -0.966434 -0.254709 -0.033601
vn -0.966434 -0.254709 -0.033601
vn -0.988061 0.151694 -0.026899
vn -0.769973 0.252991 -0.585779
vn -0.769973 0.252991 -0.585779
vn -0.691197 -0.125999 -0.711597
vn -0.966434 -0.254709 -0.033601
vn -0.691197 -0.125999 -0.711597
vn -0.769973 0.252991 -0.585779
vn -0.270810 0.517920 -0.811431
vn -0.270810 0.517920 -0.811431
vn -0.078202 0.199706 -0.976730
vn -0.691197 -0.125999 -0.711597
vn -0.078202 0.199706 -0.976730
vn -0.270810 0.517920 -0.811431
vn 0.216791 0.791466 -0.571475
vn 0.216791 0.791466 -0.571475
vn 0.513394 0.531694 -0.673593
vn -0.078202 0.199706 -0.976730
vn 0.513394 0.531694 -0.673593
vn 0.216791 0.791466 -0.571475
vn 0.407493 0.913184 -0.006600
vn 0.407493 0.913184 -0.006600
vn 0.737089 0.675490 0.020300
vn 0.513394 0.531694 -0.673593
vn -0.079998 0.948474 0.306591
vn 0.189402 0.811909 0.552206
vn 0.407493 0.913184 -0.006600
vn 0.407493 0.913184 -0.006600
vn 0.031501 0.997622 -0.061301
vn -0.079998 0.948474 0.306591
vn 0.031501 0.997622 -0.061301
vn 0.407493 0.913184 -0.006600
vn 0.216791 0.791466 -0.571475
vn 0.189402 0.811909 0.552206
vn -0.079998 0.948474 0.306591
vn -0.386193 0.787085 0.480991
vn -0.386193 0.787085 0.480991
vn -0.309702 0.546904 0.777805
vn 0.189402 0.811909 0.552206
vn -0.309702 0.546904 0.777805
vn -0.386193 0.787085 0.480991
vn -0.707883 0.607885 0.359691
vn -0.707883 0.607885 0.359691
vn -0.797406 0.273502 0.537904
vn -0.309702 0.546904 0.777805
vn -0.797406 0.273502 0.537904
vn -0.707883 0.607885 0.359691
vn -0.856530 0.515918 0.013600
vn -0.856530 0.515918 0.013600
vn -0.988061 0.151694 -0.026899
vn -0.797406 0.273502 0.537904
vn -0.988061 0.151694 -0.026899
vn -0.856530 0.515918 0.013600
vn -0.745101 0.565000 -0.354400
vn -0.745101 0.565000 -0.354400
vn -0.769973 0.252991 -0.585779
vn -0.988061 0.151694 -0.026899
vn -0.769973 0.252991 -0.585779
vn -0.745101 0.565000 -0.354400
vn -0.438701 0.726502 -0.528901
vn -0.438701 0.726502 -0.528901
vn -0.270810 0.517920 -0.811431
vn -0.769973 0.252991 -0.585779
vn -0.270810 0.517920 -0.811431
vn -0.438701 0.726502 -0.528901
vn -0.117101 0.905709 -0.407404
vn 0.216791 0.791466 -0.571475
vn -0.117101 0.905709 -0.407404
vn 0.031501 0.997622 -0.061301
vn -0.117101 0.905709 -0.407404
vn 0.216791 0.791466 -0.571475
vn -0.270810 0.517920 -0.811431
vn 0.031501 0.997622 -0.061301
vn -0.478402 0.877704 -0.027700
vn -0.079998 0.948474 0.306591
vn -0.079998 0.948474 0.306591
vn -0.478402 0.877704 -0.027700
vn -0.386193 0.787085 0.480991
vn -0.386193 0.787085 0.480991
vn -0.478402 0.877704 -0.027700
vn -0.707883 0.607885 0.359691
vn -0.707883 0.607885 0.359691
vn -0.478402 0.877704 -0.027700
vn -0.856530 0.515918 0.013600
vn -0.856530 0.515918 0.013600
vn -0.478402 0.877704 -0.027700
vn -0.745101 0.565000 -0.354400
vn -0.745101 0.565000 -0.354400
vn -0.478402 0.877704 -0.027700
vn -0.438701 0.726502 -0.528901
vn -0.438701 0.726502 -0.528901
vn -0.478402 0.877704 -0.027700
vn -0.117101 0.905709 -0.407404
vn -0.117101 0.905709 -0.407404
vn -0.478402 0.877704 -0.027700
vn 0.031501 0.997622 -0.061301
vn 0.638324 0.354413 -0.683326
vn 0.513394 0.531694 -0.673593
vn 0.737089 0.675490 0.020300
vn 0.513394 0.531694 -0.673593
vn 0.638324 0.354413 -0.683326
vn 0.030701 0.013301 -0.999440
vn 0.030701 0.013301 -0.999440
vn -0.078202 0.199706 -0.976730
vn 0.513394 0.531694 -0.673593
vn -0.078202 0.199706 -0.976730
vn 0.030701 0.013301 -0.999440
vn -0.601719 -0.322910 -0.730523
vn -0.601719 -0.322910 -0.730523
vn -0.691197 -0.125999 -0.711597
vn -0.078202 0.199706 -0.976730
vn -0.691197 -0.125999 -0.711597
vn -0.601719 -0.322910 -0.730523
vn -0.888667 -0.457283 -0.034099
vn -0.888667 -0.457283 -0.034099
vn -0.966434 -0.254709 -0.033601
vn -0.691197 -0.125999 -0.711597
s off
g rightantenna:Mesh rightantenna:polySurface2 rightantenna:polySurface4 rightantenna:polySurface17 rightantenna:polySurface1
usemtl AndroidRobot:_android_texture
f 1/1/1 2/2/2 3/3/3
f 3/4/4 4/5/5 1/6/6
f 4/7/7 3/8/8 5/9/9
f 5/10/10 6/11/11 4/12/12
f 6/13/13 5/14/14 7/15/15
f 7/16/16 8/17/17 6/18/18
f 8/19/19 7/20/20 9/21/21
f 9/22/22 10/23/23 8/24/24
f 10/25/25 9/26/26 11/27/27
f 11/28/28 12/29/29 10/30/30
f 12/31/31 11/32/32 13/33/33
f 13/34/34 14/35/35 12/36/36
f 14/37/37 13/38/38 15/39/39
f 15/40/40 16/41/41 14/42/42
f 16/43/43 15/44/44 2/45/45
f 2/46/46 1/47/47 16/48/48
f 17/49/49 1/50/50 4/51/51
f 4/52/52 18/53/53 17/54/54
f 18/55/55 4/56/56 6/57/57
f 19/58/58 17/59/59 18/60/60
f 18/61/61 20/62/62 19/63/63
f 17/64/64 19/65/65 21/66/66
f 21/67/67 22/68/68 17/69/69
f 22/70/70 16/71/71 1/72/72
f 1/73/73 17/74/74 22/75/75
f 22/76/76 21/77/77 23/78/78
f 23/79/79 24/80/80 22/81/81
f 24/82/82 14/83/83 16/84/84
f 16/85/85 22/86/86 24/87/87
f 24/88/88 23/89/89 25/90/90
f 25/91/91 26/92/92 24/93/93
f 26/94/94 12/95/95 14/96/96
f 14/97/97 24/98/98 26/99/99
f 26/100/100 25/101/101 27/102/102
f 27/103/103 28/104/104 26/105/105
f 28/106/106 27/107/107 29/108/108
f 29/109/109 30/110/110 28/111/111
f 30/112/112 29/113/113 31/114/114
f 31/115/115 32/116/116 30/117/117
f 32/118/118 31/119/119 20/120/120
f 20/121/121 18/122/122 32/123/123
f 33/124/124 19/125/125 20/126/126
f 20/127/127 34/128/128 33/129/129
f 34/130/130 20/131/131 31/132/132
f 19/133/133 33/134/134 35/135/135
f 35/136/136 21/137/137 19/138/138
f 21/139/139 35/140/140 36/141/141
f 36/142/142 23/143/143 21/144/144
f 23/145/145 36/146/146 37/147/147
f 37/148/148 25/149/149 23/150/150
f 25/151/151 37/152/152 38/153/153
f 38/154/154 27/155/155 25/156/156
f 27/157/157 38/158/158 39/159/159
f 39/160/160 29/161/161 27/162/162
f 29/163/163 39/164/164 40/165/165
f 31/166/166 40/167/167 34/168/168
f 40/169/169 31/170/170 29/171/171
f 34/172/172 41/173/173 33/174/174
f 33/175/175 41/176/176 35/177/177
f 35/178/178 41/179/179 36/180/180
f 36/181/181 41/182/182 37/183/183
f 37/184/184 41/185/185 38/186/186
f 38/187/187 41/188/188 39/189/189
f 39/190/190 41/191/191 40/192/192
f 40/193/193 41/194/194 34/195/195
f 6/196/196 32/197/197 18/198/198
f 32/199/199 6/200/200 8/201/201
f 8/202/202 30/203/203 32/204/204
f 30/205/205 8/206/206 10/207/207
f 10/208/208 28/209/209 30/210/210
f 28/211/211 10/212/212 12/213/213
f 12/214/214 26/215/215 28/216/216
